HIERARCHY
ROOT Hips
{
	OFFSET -32.860001 56.121803 44.745396
	CHANNELS 6 Xposition Yposition Zposition Zrotation Xrotation Yrotation
	JOINT Chest
	{
		OFFSET -0.637402 0.831600 5.390099
		CHANNELS 6 Xposition Yposition Zposition Zrotation Xrotation Yrotation
		JOINT Chest2
		{
			OFFSET 0.000000 0.000000 4.429901
			CHANNELS 6 Xposition Yposition Zposition Zrotation Xrotation Yrotation
			JOINT Neck
			{
				OFFSET 0.000000 0.000000 10.301395
				CHANNELS 6 Xposition Yposition Zposition Zrotation Xrotation Yrotation
				JOINT Head
				{
					OFFSET 0.000000 0.000000 2.173897
					CHANNELS 6 Xposition Yposition Zposition Zrotation Xrotation Yrotation
					End Site
					{
						OFFSET 0.000000 0.000000 8.298004
					}
				}
			}
			JOINT LeftCollar
			{
				OFFSET 2.142401 -0.572701 5.717800
				CHANNELS 6 Xposition Yposition Zposition Zrotation Xrotation Yrotation
				JOINT LeftShoulder
				{
					OFFSET 5.674000 0.000000 0.000000
					CHANNELS 6 Xposition Yposition Zposition Zrotation Xrotation Yrotation
					JOINT LeftElbow
					{
						OFFSET 0.000000 0.000000 -12.238701
						CHANNELS 6 Xposition Yposition Zposition Zrotation Xrotation Yrotation
						JOINT LeftWrist
						{
							OFFSET 0.000000 0.000000 -10.253700
							CHANNELS 6 Xposition Yposition Zposition Zrotation Xrotation Yrotation
							End Site
							{
								OFFSET 0.000000 0.000000 -2.173901
							}
						}
					}
				}
			}
			JOINT RightCollar
			{
				OFFSET -2.882599 -1.580101 6.695801
				CHANNELS 6 Xposition Yposition Zposition Zrotation Xrotation Yrotation
				JOINT RightShoulder
				{
					OFFSET -4.235600 0.000000 0.000000
					CHANNELS 6 Xposition Yposition Zposition Zrotation Xrotation Yrotation
					JOINT RightElbow
					{
						OFFSET 0.000000 0.000000 -10.709900
						CHANNELS 6 Xposition Yposition Zposition Zrotation Xrotation Yrotation
						JOINT RightWrist
						{
							OFFSET 0.000000 0.000000 -11.716801
							CHANNELS 6 Xposition Yposition Zposition Zrotation Xrotation Yrotation
							End Site
							{
								OFFSET 0.000000 0.000000 -2.173901
							}
						}
					}
				}
			}
		}
	}
	JOINT LeftHip
	{
		OFFSET 2.279499 0.210400 -2.475502
		CHANNELS 6 Xposition Yposition Zposition Zrotation Xrotation Yrotation
		JOINT LeftKnee
		{
			OFFSET 0.000000 -0.000004 -20.742800
			CHANNELS 6 Xposition Yposition Zposition Zrotation Xrotation Yrotation
			JOINT LeftAnkle
			{
				OFFSET 0.000000 0.000000 -16.666000
				CHANNELS 6 Xposition Yposition Zposition Zrotation Xrotation Yrotation
				End Site
				{
					OFFSET 0.000000 -8.310898 0.000000
				}
			}
		}
	}
	JOINT RightHip
	{
		OFFSET -1.961899 0.232300 -2.727402
		CHANNELS 6 Xposition Yposition Zposition Zrotation Xrotation Yrotation
		JOINT RightKnee
		{
			OFFSET 0.000000 -0.000004 -20.526800
			CHANNELS 6 Xposition Yposition Zposition Zrotation Xrotation Yrotation
			JOINT RightAnkle
			{
				OFFSET 0.000000 0.000000 -16.867300
				CHANNELS 6 Xposition Yposition Zposition Zrotation Xrotation Yrotation
				End Site
				{
					OFFSET 0.000000 -7.186401 0.000000
				}
			}
		}
	}
}
MOTION
Frames: 7
Frame Time: 0.041667
-36.745308 -9.143097 38.117088 905.143390 2.587730 -0.205450 -0.637397 0.831601 5.390098 -32.659984 0.387617 6.914867 -0.000003 -0.000004 4.429902 11.112437 -0.576910 -0.283206 0.000005 0.000000 10.301399 377.236621 5.516067 -10.989898 -0.000006 0.000001 2.173894 -357.285693 1.702618 0.859452 2.142404 -0.572696 5.717802 -28.362828 6.266961 2.352137 5.674002 0.000004 0.000000 131.448111 198.511320 106.868951 -0.000001 0.000009 -12.238698 -21.953044 -352.435466 -358.584112 -0.000003 0.000000 -10.253706 125.633926 16.559700 -52.756815 -2.882597 -1.580098 6.695799 6.563585 13.846767 6.558261 -4.235602 -0.000000 -0.000004 80.953034 -28.013174 112.274622 -0.000010 -0.000001 -10.709915 -108.553904 -56.142577 -133.504681 0.000005 -0.000007 -11.716803 282.224619 -19.251844 -34.787209 2.279500 0.210402 -2.475494 419.451425 -42.794612 35.602317 -0.000008 -0.000005 -20.742807 -498.492832 -2.297891 99.183233 0.000000 -0.000000 -16.666002 444.003824 5.772428 46.885704 -1.961891 0.232304 -2.727399 -370.397989 -11.111690 -0.872622 0.000000 -0.000008 -20.526798 416.054908 65.822595 -54.479098 0.000003 -0.000000 -16.867300 -35.549014 1.558099 -7.613507
-36.726799 -7.885796 38.175396 904.258634 2.411731 -0.189056 -0.637400 0.831602 5.390102 -31.335678 0.503864 7.155736 0.000003 0.000001 4.429904 10.632064 -0.611155 -0.277794 -0.000004 0.000001 10.301399 377.213699 5.600218 -11.007577 -0.000002 -0.000003 2.173898 -358.111873 3.223451 1.497101 2.142398 -0.572701 5.717799 -27.601990 6.019716 2.109495 5.674004 0.000010 -0.000004 131.229845 199.146255 107.120370 -0.000000 0.000002 -12.238691 -22.819773 -352.442242 -358.471222 0.000008 -0.000002 -10.253703 125.640374 16.434497 -52.669501 -2.882603 -1.580096 6.695793 6.586989 13.611904 6.927157 -4.235604 -0.000000 0.000010 81.338926 -28.169601 112.265053 0.000002 0.000004 -10.709902 -108.059617 -56.018292 -133.056839 0.000003 0.000001 -11.716793 281.977284 -19.075632 -35.203072 2.279500 0.210405 -2.475502 423.230623 -44.273436 40.051048 0.000002 -0.000011 -20.742804 -499.133723 -2.466653 95.696380 -0.000003 0.000003 -16.666002 443.175513 4.672966 45.880355 -1.961889 0.232306 -2.727405 -365.831981 -7.529116 0.166728 0.000010 -0.000007 -20.526798 406.385956 63.853424 -48.377967 0.000003 -0.000001 -16.867298 -34.957219 2.440665 -7.322229
-36.723503 -6.545498 38.252888 903.169793 2.148589 -0.210144 -0.637397 0.831603 5.390105 -29.915587 0.522931 7.394618 0.000005 0.000002 4.429905 10.106978 -0.606527 -0.249621 -0.000003 0.000001 10.301398 377.202934 5.771353 -10.954812 -0.000005 -0.000000 2.173897 -358.833031 4.897750 2.219202 2.142398 -0.572700 5.717802 -26.768527 5.762756 1.885926 5.674004 0.000008 0.000000 130.985297 199.472792 107.450350 0.000007 -0.000004 -12.238700 -23.349649 -352.382874 -358.390107 0.000005 0.000002 -10.253699 125.588724 16.468612 -52.630388 -2.882600 -1.580096 6.695804 6.777055 13.485384 7.324160 -4.235603 0.000001 0.000004 81.682676 -28.341139 112.348156 -0.000004 0.000003 -10.709906 -107.143866 -55.443610 -132.299070 0.000008 -0.000004 -11.716801 282.591154 -19.143588 -35.206196 2.279501 0.210404 -2.475497 426.457723 -45.389462 43.650977 -0.000000 -0.000013 -20.742802 -499.842095 -2.181596 91.624747 -0.000001 0.000000 -16.666002 442.254721 3.644979 44.981324 -1.961898 0.232305 -2.727401 -360.576560 -3.532691 0.863716 -0.000009 -0.000005 -20.526800 396.691486 61.264898 -42.731784 -0.000003 0.000002 -16.867300 -34.175466 3.887517 -6.838699
-36.738804 -5.121803 38.347095 902.007677 1.658836 -0.604542 -0.637400 0.831597 5.390101 -28.514278 0.433280 8.016347 -0.000005 0.000005 4.429904 9.550723 -0.585239 -0.227944 0.000002 0.000001 10.301399 377.202716 5.978126 -10.849520 -0.000002 -0.000005 2.173890 -358.918217 4.820653 2.112190 2.142400 -0.572705 5.717795 -26.001186 5.600443 1.811903 5.673999 -0.000002 0.000004 130.661929 199.236645 107.690677 0.000005 0.000006 -12.238701 -23.300210 -352.255641 -358.387238 0.000008 -0.000002 -10.253700 125.515108 16.649773 -52.739685 -2.882605 -1.580099 6.695796 7.174852 13.391437 7.685670 -4.235609 -0.000008 -0.000002 81.883839 -28.516936 112.446026 0.000006 -0.000001 -10.709908 -105.860255 -54.192801 -131.349346 0.000006 0.000002 -11.716799 283.908725 -19.293655 -34.782663 2.279492 0.210401 -2.475502 428.906373 -45.819528 46.258928 -0.000004 -0.000016 -20.742804 -500.601011 -1.530450 87.322452 -0.000003 0.000003 -16.666000 441.696914 2.738458 43.928123 -1.961892 0.232300 -2.727395 -354.691259 0.916002 1.331831 0.000007 -0.000003 -20.526806 387.388604 58.103395 -37.896041 0.000007 0.000008 -16.867302 -33.025802 5.934502 -6.749751
-36.772305 -3.617802 38.453892 900.839715 0.874401 -0.818511 -0.637403 0.831600 5.390094 -27.196937 0.635368 8.541105 -0.000004 -0.000001 4.429909 8.992653 -0.565881 -0.204855 -0.000007 -0.000005 10.301399 376.288345 6.425955 -10.066015 0.000004 -0.000005 2.173898 -357.905000 4.702356 1.558637 2.142395 -0.572695 5.717806 -25.248097 5.443904 1.842726 5.673995 0.000003 -0.000006 130.143695 198.333886 107.908239 0.000001 0.000001 -12.238691 -22.592579 -352.096416 -358.475293 0.000005 -0.000010 -10.253704 125.442913 16.961933 -52.865531 -2.882602 -1.580096 6.695803 7.640027 13.495741 7.997282 -4.235608 -0.000002 -0.000004 82.073199 -28.654184 112.771443 0.000004 -0.000005 -10.709894 -104.325669 -53.386347 -130.140252 -0.000007 -0.000006 -11.716797 284.895168 -19.517776 -34.830481 2.279504 0.210407 -2.475501 430.500157 -45.932196 47.623142 -0.000011 -0.000011 -20.742807 -501.462763 -0.430625 83.034371 -0.000003 0.000004 -16.666000 440.904803 2.120568 42.701031 -1.961896 0.232300 -2.727403 -348.136135 5.698934 0.739557 0.000000 -0.000005 -20.526798 378.487201 54.541291 -33.932322 0.000003 -0.000004 -16.867300 -31.844497 9.318190 -6.537958
-36.825909 -2.037998 38.563492 899.999110 -0.102084 -1.007700 -0.637400 0.831599 5.390098 -26.256611 0.975292 9.045938 -0.000009 0.000006 4.429899 8.446547 -0.573571 -0.181409 0.000001 -0.000002 10.301397 377.704024 6.429755 -10.760356 -0.000009 -0.000001 2.173903 -359.452912 4.906581 2.265690 2.142403 -0.572701 5.717807 -24.555852 5.296080 1.958420 5.673995 0.000010 -0.000002 129.473462 197.022066 108.151251 -0.000000 0.000005 -12.238700 -21.503966 -351.929732 -358.629710 0.000006 0.000002 -10.253704 125.402587 17.380514 -53.042501 -2.882605 -1.580101 6.695798 8.212827 13.636948 8.235602 -4.235600 -0.000011 -0.000002 82.011775 -28.615863 112.989893 -0.000002 0.000001 -10.709900 -104.883975 -52.991435 -130.676846 0.000009 -0.000004 -11.716805 285.008494 -19.667033 -34.160638 2.279491 0.210407 -2.475497 430.774075 -45.788519 47.783720 -0.000006 -0.000009 -20.742802 -502.236268 0.958700 79.096849 -0.000003 0.000004 -16.665998 440.261153 1.547174 41.488881 -1.961890 0.232302 -2.727408 -341.740565 10.268792 -0.815188 0.000005 -0.000004 -20.526802 370.808948 50.980798 -31.005695 0.000008 0.000004 -16.867300 -30.613140 13.602806 -6.674926
-36.894600 -0.393005 38.665497 898.868413 -1.789013 -1.116605 -0.637401 0.831598 5.390103 -25.128763 1.962809 9.707692 -0.000009 -0.000003 4.429900 7.927684 -0.611774 -0.182151 0.000000 -0.000006 10.301395 377.097203 7.064658 -10.145733 -0.000005 0.000001 2.173901 -358.853932 4.848446 1.937946 2.142398 -0.572703 5.717799 -24.409873 2.963730 2.132878 5.674001 0.000007 0.000005 129.731807 194.206457 110.229725 0.000002 0.000002 -12.238695 -20.256768 -351.758458 -358.819562 0.000008 0.000006 -10.253696 125.446546 17.786533 -53.238114 -2.882602 -1.580097 6.695790 8.865625 13.798346 8.512506 -4.235612 -0.000001 -0.000002 81.773764 -28.613404 113.186418 -0.000004 0.000002 -10.709900 -105.151691 -52.629456 -130.943865 -0.000000 -0.000001 -11.716805 285.130536 -19.739499 -33.772833 2.279499 0.210405 -2.475501 429.884784 -45.271911 46.039658 0.000002 -0.000006 -20.742805 -502.862350 2.270616 75.566112 -0.000002 -0.000002 -16.665998 439.916283 1.114057 40.497172 -1.961895 0.232302 -2.727398 -336.375752 14.490866 -3.111278 -0.000000 -0.000008 -20.526798 365.096643 48.494821 -28.565386 0.000006 0.000001 -16.867300 -29.051462 18.846688 -7.067068
